<?xml version="1.0" standalone="no"?>
<!DOCTYPE svg PUBLIC "-//W3C//DTD SVG 20010904//EN"
 "http://www.w3.org/TR/2001/REC-SVG-20010904/DTD/svg10.dtd">
<svg version="1.0" xmlns="http://www.w3.org/2000/svg"
 width="1536.000000pt" height="1536.000000pt" viewBox="0 0 1536.000000 1536.000000"
 preserveAspectRatio="xMidYMid meet">
<metadata>
Created by potrace 1.11, written by Peter Selinger 2001-2013
</metadata>
<g transform="translate(0.000000,1536.000000) scale(0.100000,-0.100000)"
fill="#000000" stroke="none">
<path d="M1670 15325 l0 -35 1115 0 1115 0 0 35 0 35 -1115 0 -1115 0 0 -35z"/>
<path d="M6140 15325 l0 -35 1120 0 1120 0 0 35 0 35 -1120 0 -1120 0 0 -35z"/>
<path d="M0 14920 l0 -370 460 0 460 0 0 370 0 370 -460 0 -460 0 0 -370z"/>
<path d="M11360 14175 l0 -375 -745 0 -745 0 0 -370 0 -370 370 0 370 0 0
-745 0 -745 745 0 745 0 0 370 0 370 375 0 375 0 0 -1115 0 -1115 370 0 370 0
0 -750 0 -750 -1115 0 -1115 0 0 -370 0 -370 -5590 0 -5590 0 0 -375 0 -375
-90 0 -90 0 0 -3545 0 -3545 1950 0 1950 0 0 195 0 195 375 0 375 0 0 -195 0
-195 2610 0 2610 0 0 195 0 195 370 0 370 0 0 -195 0 -195 745 0 745 0 0 940
0 940 -370 0 -370 0 0 -745 0 -745 -375 0 -375 0 0 2605 0 2605 375 0 375 0 0
375 0 375 1115 0 1115 0 0 1115 0 1115 375 0 375 0 0 -745 0 -745 370 0 370 0
0 -745 0 -745 -370 0 -370 0 0 -370 0 -370 370 0 370 0 0 -375 0 -375 140 0
140 0 0 2235 0 2235 -140 0 -140 0 0 375 0 375 140 0 140 0 0 375 0 375 -885
0 -885 0 0 745 0 745 375 0 375 0 0 370 0 370 510 0 510 0 0 1120 0 1120
-2000 0 -2000 0 0 -375z m-8200 -8945 l0 -370 -375 0 -375 0 0 370 0 370 375
0 375 0 0 -370z"/>
<path d="M6890 12685 l0 -1115 370 0 370 0 0 -375 0 -375 745 0 745 0 0 375 0
375 375 0 375 0 0 370 0 370 -375 0 -375 0 0 -370 0 -370 -745 0 -745 0 0 370
0 370 375 0 375 0 0 375 0 375 -375 0 -375 0 0 370 0 370 -370 0 -370 0 0
-1115z"/>
<path d="M0 12685 l0 -375 835 0 835 0 0 375 0 375 -835 0 -835 0 0 -375z"/>
<path d="M2410 12685 l0 -375 1120 0 1120 0 0 375 0 375 -1120 0 -1120 0 0
-375z"/>
<path d="M5400 12685 l0 -375 370 0 370 0 0 375 0 375 -370 0 -370 0 0 -375z"/>
<path d="M11360 2995 l0 -375 370 0 370 0 0 375 0 375 -370 0 -370 0 0 -375z"/>
<path d="M15080 760 l0 -370 -745 0 -745 0 0 -195 0 -195 885 0 885 0 0 565 0
565 -140 0 -140 0 0 -370z"/>
</g>
</svg>
